# Blender 4.0.1
# www.blender.org
mtllib turret.mtl
o Torreta
v 0.001041 0.500185 1.637077
v 0.273669 0.467065 1.637077
v 0.386976 0.252024 1.637077
v 0.419095 -0.481213 1.637077
v 0.427407 0.188276 1.637077
v 0.586728 -0.059601 1.637077
v 0.586728 -0.330018 1.637077
v 0.053040 -0.481213 1.637077
v -0.271586 0.467065 1.637077
v -0.384893 0.252024 1.637077
v -0.417013 -0.481213 1.637077
v -0.425325 0.188276 1.637077
v -0.584646 -0.059601 1.637077
v -0.584646 -0.330018 1.637077
v -0.051244 -0.481213 1.637077
v 0.001041 0.607837 0.493031
v 0.410821 0.610023 0.487790
v 0.681561 0.402555 0.380528
v 0.880333 0.386781 0.484737
v 1.202205 -0.058810 0.479496
v 1.202205 -0.348190 0.479496
v 0.419095 -0.481213 0.484737
v 0.056728 -0.481213 0.479496
v -0.408738 0.610023 0.487790
v -0.679478 0.402555 0.380528
v -0.878250 0.386781 0.484737
v -1.200123 -0.058810 0.479496
v -1.200123 -0.348190 0.479496
v -0.417013 -0.481213 0.484737
v -0.054645 -0.481213 0.479496
v 0.001041 0.607837 -0.784619
v 0.410821 0.610023 -0.784619
v 0.681561 0.402555 -0.758802
v 0.001041 0.008650 -1.570675
v 0.880333 0.386781 -0.758802
v 1.202205 -0.058810 -1.179601
v 1.202205 -0.348190 -1.179601
v 0.419095 -0.481213 -1.687508
v 0.056728 -0.061677 -1.621073
v 0.056728 -0.481213 -1.687508
v -0.408738 0.610023 -0.784619
v -0.679478 0.402555 -0.758802
v -0.878250 0.386781 -0.758802
v -1.200123 -0.058810 -1.179601
v -1.200123 -0.348190 -1.179601
v -0.417013 -0.481213 -1.687508
v -0.054645 -0.061677 -1.621073
v -0.054645 -0.481213 -1.687508
v 0.001034 0.450601 1.642579
v 0.247365 0.432799 1.642579
v 0.345968 0.237485 1.642579
v 0.424478 -0.419206 1.642579
v 0.393853 0.161765 1.642579
v 0.543721 -0.088536 1.642579
v 0.548058 -0.312367 1.642579
v 0.059025 -0.425142 1.642579
v -0.245282 0.432808 1.642579
v -0.350585 0.237484 1.642579
v -0.422398 -0.419212 1.642579
v -0.398470 0.161765 1.642579
v -0.541653 -0.088532 1.642579
v -0.545989 -0.312374 1.642579
v -0.057259 -0.425081 1.642579
v 0.001087 0.464234 1.535946
v 0.247910 0.433818 1.535946
v 0.364450 0.238067 1.535946
v 0.418374 -0.426943 1.535946
v 0.407594 0.168697 1.535946
v 0.548678 -0.077662 1.535946
v 0.552424 -0.310249 1.535946
v 0.059025 -0.439067 1.535946
v -0.245767 0.433824 1.535946
v -0.368973 0.238122 1.535946
v -0.416225 -0.426953 1.535946
v -0.412123 0.168744 1.535946
v -0.546547 -0.077657 1.535946
v -0.550293 -0.310259 1.535946
v -0.057259 -0.439579 1.535946
v 0.001127 0.013079 1.541448
v 0.053040 -0.057486 1.541448
v -0.051244 -0.059763 1.541448
v 0.681561 0.505375 -0.758802
v 0.007762 0.505375 -1.664571
v 0.880333 0.505375 -0.758802
v 0.060531 0.505375 -1.664416
v -0.679478 0.505375 -0.758802
v -0.878250 0.505375 -0.758802
v -0.065169 0.505375 -1.650717
vn 0.8830 -0.0000 0.4695
vn 0.0037 0.9924 0.1230
vn 0.7745 0.4978 0.3902
vn -0.0000 -1.0000 -0.0000
vn 0.8731 0.4600 0.1614
vn 0.1201 0.9884 0.0930
vn -0.7774 0.4931 0.3905
vn -0.6698 -0.7426 -0.0000
vn -0.8830 -0.0000 0.4695
vn 0.0791 0.9969 -0.0000
vn -0.1675 -0.9859 -0.0000
vn -1.0000 -0.0000 -0.0000
vn -0.8106 0.5856 -0.0000
vn 0.6082 0.7937 -0.0000
vn -0.0791 0.9969 -0.0000
vn -0.0053 1.0000 -0.0000
vn -0.6082 0.7937 -0.0000
vn -0.6485 0.7229 0.2386
vn 0.1672 -0.9804 0.1043
vn 0.0146 0.9924 0.1223
vn -0.7462 0.5343 0.3971
vn 0.4875 0.5520 -0.6765
vn 0.5441 -0.0000 -0.8390
vn 0.4680 0.5177 -0.7162
vn -0.1836 -0.1802 -0.9664
vn 0.0042 0.7953 -0.6062
vn -0.0701 0.7112 -0.6995
vn -0.0000 0.1564 -0.9877
vn 0.7966 -0.0000 0.6044
vn -0.0000 0.5825 -0.8128
vn 0.8106 0.5856 -0.0000
vn 1.0000 -0.0000 -0.0000
vn 0.0053 1.0000 -0.0000
vn 0.1675 -0.9859 -0.0000
vn -0.0000 -0.0977 0.9952
vn -0.0922 -0.1067 0.9900
vn -0.1269 -0.0000 0.9919
vn 0.0861 -0.0955 0.9917
vn -0.1240 0.0797 0.9891
vn 0.1421 0.0028 0.9898
vn -0.1228 0.0647 0.9903
vn 0.0907 0.0543 0.9944
vn -0.0080 0.1103 0.9939
vn -0.1250 0.0793 0.9890
vn -0.0014 -0.0885 0.9961
vn 0.1129 0.0570 0.9920
vn 0.1083 0.0687 0.9917
vn 0.0177 0.1453 0.9892
vn -0.8405 -0.5228 -0.1423
vn -0.8495 -0.5058 -0.1500
vn 0.0160 0.9973 -0.0715
vn 0.8360 -0.5287 -0.1473
vn 0.1213 -0.9846 -0.1258
vn -0.8543 -0.5115 -0.0919
vn 0.8802 -0.4745 -0.0085
vn -0.9990 -0.0194 -0.0413
vn 0.8689 -0.4740 -0.1423
vn -0.6565 0.7541 -0.0171
vn 0.0005 0.9916 -0.1295
vn 0.9987 -0.0161 -0.0475
vn 0.6539 0.7565 -0.0114
vn -0.0334 0.9910 -0.1294
vn -0.0721 -0.9974 -0.0099
vn 0.0001 -0.0145 0.9999
vn -0.0103 0.0074 0.9999
vn 0.0111 0.0069 0.9999
vn -0.0000 -0.0000 1.0000
vn -0.0005 -0.0145 0.9999
vn 0.0005 -0.0144 0.9999
vn -0.0015 0.0122 0.9999
vn 0.0015 0.0122 0.9999
vn -0.0000 1.0000 -0.0000
vn -0.7893 0.1243 0.6013
vn -0.7349 -0.0490 -0.6764
vn -0.7038 -0.0494 -0.7087
vn 0.7414 -0.0000 -0.6711
vn -0.1201 0.9884 0.0930
vn 0.7462 0.5343 0.3971
vn 0.6485 0.7229 0.2386
vn -0.0037 0.9924 0.1230
vn -0.0146 0.9924 0.1223
vn -0.1672 -0.9804 0.1043
vn -0.8731 0.4600 0.1614
vn 0.6698 -0.7426 -0.0000
vn 0.7774 0.4931 0.3905
vn -0.7745 0.4978 0.3902
vn -0.0042 0.7953 -0.6062
vn 0.0701 0.7112 -0.6995
vn 0.6881 -0.0251 -0.7252
vn -0.4875 0.5520 -0.6765
vn -0.5441 -0.0000 -0.8390
vn -0.4680 0.5177 -0.7162
vn 0.7865 0.1044 0.6086
vn 0.0014 -0.0885 0.9961
vn -0.0861 -0.0955 0.9917
vn -0.1421 0.0028 0.9898
vn -0.0001 -0.0976 0.9952
vn 0.0922 -0.1066 0.9900
vn -0.0919 0.0526 0.9944
vn 0.1269 -0.0000 0.9919
vn -0.1291 0.0696 0.9892
vn 0.1079 0.0693 0.9917
vn -0.0177 0.1453 0.9892
vn -0.1248 0.0789 0.9890
vn -0.0000 -0.0975 0.9952
vn 0.1228 0.0647 0.9903
vn 0.1087 0.0687 0.9917
vn 0.0080 0.1103 0.9939
vn -0.8359 -0.5286 -0.1478
vn -0.8927 -0.4506 -0.0089
vn 0.0348 0.9903 -0.1346
vn 0.8406 -0.5228 -0.1418
vn 0.0720 -0.9974 -0.0098
vn -0.8589 -0.4919 -0.1427
vn 0.8370 -0.5269 -0.1475
vn -0.9987 -0.0161 -0.0481
vn 0.8645 -0.4945 -0.0901
vn -0.6540 0.7564 -0.0118
vn -0.0044 0.9909 -0.1347
vn 0.9990 -0.0194 -0.0407
vn 0.6564 0.7542 -0.0167
vn -0.0162 0.9973 -0.0714
vn -0.1213 -0.9846 -0.1259
vn 0.0003 -0.0144 0.9999
vn -0.0109 0.0068 0.9999
vn 0.0104 0.0077 0.9999
vn -0.0152 0.0001 0.9999
vn 0.0153 0.0003 0.9999
vn -0.0107 0.0068 0.9999
vn 0.0111 0.0066 0.9999
vn -0.8023 -0.0000 0.5969
vn -0.7390 -0.0000 -0.6737
vn 0.0029 -0.1858 -0.9826
vn 0.7365 -0.0565 -0.6741
vt 0.591544 0.635066
vt 0.481629 0.624777
vt 0.588668 0.611730
vt 0.258182 0.629778
vt 0.168516 0.651415
vt 0.167838 0.620812
vt 0.485545 0.581306
vt 0.591540 0.586953
vt 0.253081 0.453746
vt 0.166151 0.426071
vt 0.165767 0.453482
vt 0.261166 0.692254
vt 0.167838 0.682018
vt 0.258182 0.673052
vt 0.257973 0.651415
vt 0.261166 0.610576
vt 0.166638 0.576783
vt 0.262500 0.604715
vt 0.253207 0.409411
vt 0.253138 0.426343
vt 0.583419 0.679594
vt 0.481826 0.685863
vt 0.483401 0.664289
vt 0.253080 0.461604
vt 0.166151 0.489301
vt 0.253138 0.489029
vt 0.159470 0.709811
vt 0.069715 0.717964
vt 0.070978 0.702698
vt 0.040269 0.366681
vt 0.002317 0.426210
vt 0.165767 0.461890
vt 0.002317 0.489164
vt 0.361589 0.664289
vt 0.382848 0.729685
vt 0.378538 0.684766
vt 0.079702 0.680161
vt 0.159470 0.593019
vt 0.069715 0.584867
vt 0.073148 0.651415
vt 0.002323 0.453489
vt 0.079702 0.622669
vt 0.070978 0.600132
vt 0.253207 0.505961
vt 0.164833 0.549292
vt 0.166638 0.726047
vt 0.580366 0.701182
vt 0.484823 0.728827
vt 0.002317 0.651415
vt 0.301309 0.621847
vt 0.379777 0.624091
vt 0.363976 0.640156
vt 0.874543 0.572644
vt 0.842545 0.599942
vt 0.785875 0.522492
vt 0.805415 0.603148
vt 0.769747 0.589392
vt 0.768260 0.594783
vt 0.292782 0.681827
vt 0.874543 0.635629
vt 0.842545 0.608332
vt 0.874543 0.608332
vt 0.722941 0.521693
vt 0.729865 0.518221
vt 0.874543 0.599942
vt 0.812257 0.606791
vt 0.811564 0.598430
vt 0.385718 0.581306
vt 0.482309 0.649346
vt 0.040270 0.548692
vt 0.988059 0.432162
vt 0.983831 0.405024
vt 0.988077 0.404574
vt 0.976661 0.356534
vt 0.983371 0.368763
vt 0.975318 0.359474
vt 0.958467 0.359773
vt 0.956286 0.356507
vt 0.988077 0.396714
vt 0.976665 0.444790
vt 0.983367 0.432553
vt 0.939604 0.370542
vt 0.937590 0.368491
vt 0.958479 0.441526
vt 0.975323 0.441848
vt 0.932783 0.371539
vt 0.919193 0.382100
vt 0.916586 0.380104
vt 0.956295 0.444791
vt 0.939606 0.430250
vt 0.914084 0.400649
vt 0.917848 0.400648
vt 0.933896 0.374153
vt 0.988061 0.369151
vt 0.983827 0.396261
vt 0.932786 0.429756
vt 0.919196 0.419196
vt 0.933899 0.426640
vt 0.937595 0.432804
vt 0.916588 0.421193
vt 0.619467 0.254223
vt 0.623816 0.250886
vt 0.623862 0.254218
vt 0.619412 0.250569
vt 0.623713 0.241594
vt 0.617364 0.301488
vt 0.620408 0.316457
vt 0.616042 0.316325
vt 0.618179 0.208817
vt 0.622718 0.211892
vt 0.618342 0.212467
vt 0.619202 0.231572
vt 0.623143 0.221316
vt 0.623585 0.231451
vt 0.623963 0.265798
vt 0.619598 0.266123
vt 0.618797 0.221507
vt 0.623712 0.275283
vt 0.619358 0.275251
vt 0.621949 0.197131
vt 0.622566 0.208563
vt 0.619017 0.281906
vt 0.623341 0.282523
vt 0.622143 0.297140
vt 0.617773 0.296763
vt 0.617573 0.197070
vt 0.621125 0.187677
vt 0.616041 0.181350
vt 0.616781 0.187972
vt 0.619364 0.241645
vt 0.893557 0.408640
vt 0.849257 0.395973
vt 0.893557 0.395076
vt 0.814349 0.359064
vt 0.840788 0.402118
vt 0.814731 0.444612
vt 0.849045 0.408137
vt 0.822844 0.449609
vt 0.851090 0.338191
vt 0.891898 0.353213
vt 0.822419 0.353996
vt 0.892324 0.450560
vt 0.851652 0.465938
vt 0.791585 0.373536
vt 0.788165 0.402345
vt 0.791839 0.431119
vt 0.772572 0.622934
vt 0.729959 0.693835
vt 0.736181 0.707455
vt 0.723172 0.690104
vt 0.770931 0.619314
vt 0.735312 0.605832
vt 0.722914 0.697054
vt 0.744785 0.501514
vt 0.809141 0.572705
vt 0.722914 0.514804
vt 0.736471 0.504783
vt 0.728454 0.500842
vt 0.744387 0.710988
vt 0.164832 0.366080
vt 0.002322 0.461884
vt 0.262500 0.698115
vt 0.582845 0.724317
vt 0.785875 0.685782
vt 0.731975 0.606354
vt 0.621738 0.301866
vt 0.620321 0.180472
vt 0.878219 0.337635
vt 0.878782 0.466255
vt 0.728055 0.711168
vt 0.810990 0.641894
s 0
usemtl DH_Material
f 7/1/1 20/2/1 6/3/1
f 9/4/2 16/5/2 24/6/2
f 6/3/3 19/7/3 5/8/3
f 15/9/4 29/10/4 30/11/4
f 3/12/5 17/13/5 2/14/5
f 2/14/6 16/5/6 1/15/6
f 10/16/7 26/17/7 12/18/7
f 14/19/8 29/10/8 11/20/8
f 14/21/9 27/22/9 28/23/9
f 8/24/4 22/25/4 4/26/4
f 18/27/10 35/28/10 33/29/10
f 29/10/11 45/30/11 46/31/11
f 23/32/4 38/33/4 22/25/4
f 27/22/12 45/34/12 28/23/12
f 27/22/13 43/35/13 44/36/13
f 18/27/14 32/37/14 17/13/14
f 25/38/15 43/39/15 26/17/15
f 17/13/16 31/40/16 16/5/16
f 30/11/4 46/31/4 48/41/4
f 25/38/17 41/42/17 42/43/17
f 30/11/4 8/24/4 15/9/4
f 10/16/18 24/6/18 25/38/18
f 7/44/19 22/25/19 21/45/19
f 3/12/20 19/46/20 18/27/20
f 13/47/21 26/48/21 27/22/21
f 34/49/22 32/37/22 33/29/22
f 38/50/23 36/51/23 37/52/23
f 38/53/24 39/54/24 35/55/24
f 34/56/25 88/57/25 83/58/25
f 34/49/26 41/42/26 31/40/26
f 46/59/27 44/36/27 43/35/27
f 46/60/28 47/61/28 48/62/28
f 42/63/29 83/58/29 86/64/29
f 48/62/28 39/54/28 40/65/28
f 39/66/30 47/67/30 34/56/30
f 48/41/4 23/32/4 30/11/4
f 20/2/31 35/68/31 19/7/31
f 21/69/32 36/51/32 20/2/32
f 24/6/33 31/40/33 41/42/33
f 22/25/34 37/70/34 21/45/34
f 4/71/35 56/72/35 8/73/35
f 14/74/36 59/75/36 62/76/36
f 14/74/37 61/77/37 13/78/37
f 56/72/35 15/79/35 8/73/35
f 7/80/38 52/81/38 4/71/38
f 13/78/39 60/82/39 12/83/39
f 7/80/40 54/84/40 55/85/40
f 10/86/41 57/87/41 9/88/41
f 6/89/42 53/90/42 54/84/42
f 1/91/43 57/87/43 49/92/43
f 12/83/44 58/93/44 10/86/44
f 11/94/45 63/95/45 59/75/45
f 3/96/46 50/97/46 51/98/46
f 3/96/47 53/90/47 5/99/47
f 1/91/48 50/97/48 2/100/48
f 53/101/49 66/102/49 68/103/49
f 51/104/50 65/105/50 66/102/50
f 63/106/51 74/107/51 59/108/51
f 60/109/52 73/110/52 58/111/52
f 49/112/53 72/113/53 64/114/53
f 53/101/54 69/115/54 54/116/54
f 58/111/55 72/113/55 57/117/55
f 54/116/56 70/118/56 55/119/56
f 60/109/57 76/120/57 75/121/57
f 52/122/58 70/118/58 67/123/58
f 71/124/59 63/106/59 56/125/59
f 61/126/60 77/127/60 76/120/60
f 59/128/61 77/127/61 62/129/61
f 56/125/62 67/123/62 71/124/62
f 49/112/63 65/105/63 50/130/63
f 71/131/64 81/132/64 78/133/64
f 73/134/65 81/132/65 79/135/65
f 66/136/66 80/137/66 68/138/66
f 80/137/67 79/135/67 81/132/67
f 76/139/67 74/140/67 75/141/67
f 81/132/68 74/140/68 78/133/68
f 67/142/67 69/143/67 68/138/67
f 67/142/69 80/137/69 71/131/69
f 72/144/70 79/135/70 64/145/70
f 79/135/71 65/146/71 64/145/71
f 85/147/72 82/148/72 84/149/72
f 88/57/72 86/64/72 83/58/72
f 33/150/73 83/151/73 34/152/73
f 33/153/67 84/149/67 82/148/67
f 43/154/74 88/57/74 47/155/74
f 42/156/67 87/157/67 43/158/67
f 34/56/75 85/147/75 39/66/75
f 35/159/76 85/147/76 84/149/76
f 7/1/1 21/69/1 20/2/1
f 9/4/77 1/15/77 16/5/77
f 6/3/78 20/2/78 19/7/78
f 15/9/4 11/20/4 29/10/4
f 3/12/79 18/27/79 17/13/79
f 2/14/80 17/13/80 16/5/80
f 10/16/81 25/38/81 26/17/81
f 14/19/82 28/160/82 29/10/82
f 14/21/9 13/47/9 27/22/9
f 8/24/4 23/32/4 22/25/4
f 18/27/10 19/46/10 35/28/10
f 29/10/11 28/160/11 45/30/11
f 23/32/4 40/161/4 38/33/4
f 27/22/12 44/36/12 45/34/12
f 27/22/13 26/48/13 43/35/13
f 18/27/14 33/29/14 32/37/14
f 25/38/15 42/43/15 43/39/15
f 17/13/16 32/37/16 31/40/16
f 30/11/4 29/10/4 46/31/4
f 25/38/17 24/6/17 41/42/17
f 30/11/4 23/32/4 8/24/4
f 10/16/83 9/4/83 24/6/83
f 7/44/84 4/26/84 22/25/84
f 3/12/85 5/162/85 19/46/85
f 13/47/86 12/163/86 26/48/86
f 34/49/87 31/40/87 32/37/87
f 38/50/88 35/68/88 36/51/88
f 38/53/28 40/65/28 39/54/28
f 34/56/89 47/67/89 88/57/89
f 34/49/90 42/43/90 41/42/90
f 46/59/91 45/34/91 44/36/91
f 46/60/92 43/164/92 47/61/92
f 42/63/93 34/165/93 83/58/93
f 48/62/28 47/61/28 39/54/28
f 48/41/4 40/161/4 23/32/4
f 20/2/31 36/51/31 35/68/31
f 21/69/32 37/52/32 36/51/32
f 24/6/33 16/5/33 31/40/33
f 22/25/34 38/33/34 37/70/34
f 4/71/94 52/81/94 56/72/94
f 14/74/95 11/94/95 59/75/95
f 14/74/96 62/76/96 61/77/96
f 56/72/97 63/95/97 15/79/97
f 7/80/98 55/85/98 52/81/98
f 13/78/99 61/77/99 60/82/99
f 7/80/100 6/89/100 54/84/100
f 10/86/101 58/93/101 57/87/101
f 6/89/102 5/99/102 53/90/102
f 1/91/103 9/88/103 57/87/103
f 12/83/104 60/82/104 58/93/104
f 11/94/105 15/79/105 63/95/105
f 3/96/106 2/100/106 50/97/106
f 3/96/107 51/98/107 53/90/107
f 1/91/108 49/92/108 50/97/108
f 53/101/109 51/104/109 66/102/109
f 51/104/110 50/130/110 65/105/110
f 63/106/111 78/166/111 74/107/111
f 60/109/112 75/121/112 73/110/112
f 49/112/113 57/117/113 72/113/113
f 53/101/114 68/103/114 69/115/114
f 58/111/115 73/110/115 72/113/115
f 54/116/116 69/115/116 70/118/116
f 60/109/117 61/126/117 76/120/117
f 52/122/118 55/119/118 70/118/118
f 71/124/119 78/166/119 63/106/119
f 61/126/120 62/129/120 77/127/120
f 59/128/121 74/167/121 77/127/121
f 56/125/122 52/122/122 67/123/122
f 49/112/123 64/114/123 65/105/123
f 71/131/124 80/137/124 81/132/124
f 73/134/125 75/141/125 81/132/125
f 66/136/126 79/135/126 80/137/126
f 76/139/67 77/168/67 74/140/67
f 81/132/127 75/141/127 74/140/127
f 67/142/67 70/169/67 69/143/67
f 67/142/128 68/138/128 80/137/128
f 72/144/129 73/134/129 79/135/129
f 79/135/130 66/136/130 65/146/130
f 85/147/72 83/151/72 82/148/72
f 88/57/72 87/157/72 86/64/72
f 33/150/131 82/148/131 83/151/131
f 33/153/67 35/170/67 84/149/67
f 43/154/132 87/157/132 88/57/132
f 42/156/67 86/64/67 87/157/67
f 34/56/133 83/151/133 85/147/133
f 35/159/134 39/171/134 85/147/134
