# Blender 3.3.0
# www.blender.org
mtllib ammo.mtl
o Ammo
v -1.465128 -0.027625 2.613776
v -1.465128 1.233706 2.613776
v -1.465128 -0.027625 -2.613776
v -1.465128 1.233706 -2.613776
v 1.465128 -0.027625 2.613776
v 1.465128 1.233706 2.613776
v 1.465128 -0.027625 -2.613776
v 1.465128 1.233706 -2.613776
vn -1.0000 -0.0000 -0.0000
vn -0.0000 -0.0000 -1.0000
vn 1.0000 -0.0000 -0.0000
vn -0.0000 -0.0000 1.0000
vn -0.0000 -1.0000 -0.0000
vn -0.0000 1.0000 -0.0000
vt 0.796830 -0.002887
vt 1.003037 0.159207
vt 0.802640 0.999934
vt 0.798979 0.158887
vt 0.804219 0.159207
vt 0.828062 0.167337
vt 0.203939 -0.002887
vt 0.000988 0.159261
vt 0.201083 0.999934
vt 0.206088 0.158888
vt 0.194116 0.159261
vt 0.204479 0.167337
vt 0.799849 0.641357
vt 1.003037 0.501201
vt 0.802640 0.675463
vt 0.799849 0.499317
vt 0.804219 0.501201
vt 0.828062 0.498699
vt 0.000988 0.504499
vt 0.206975 0.641357
vt 0.201083 0.675463
vt 0.194116 0.504499
vt 0.206975 0.499317
vt 0.204479 0.498699
s 0
usemtl Material.001
f 1/1/1 2/4/1 4/10/1 3/7/1
f 3/8/2 4/11/2 8/22/2 7/19/2
f 7/20/3 8/23/3 6/16/3 5/13/3
f 5/14/4 6/17/4 2/5/4 1/2/4
f 3/9/5 7/21/5 5/15/5 1/3/5
f 8/24/6 4/12/6 2/6/6 6/18/6
