# Blender 4.0.1
# www.blender.org
mtllib ApaAma.mtl
o Cube.003
v 62.774376 11.885818 -31.268499
v 62.774376 0.079581 -31.268499
v 50.968140 11.885818 -31.268499
v 50.968140 0.079581 -31.268499
v 62.774376 11.885818 -44.976479
v 62.774376 0.079581 -44.976479
v 50.968140 11.885818 -44.976479
v 50.968140 0.079581 -44.976479
v 50.968140 0.079581 -58.592060
v 50.968140 11.885818 -58.592060
v 62.774376 11.885818 -58.592060
v 62.774376 0.079581 -58.592060
v 50.968140 11.885818 -18.060574
v 62.774376 11.885818 -18.060574
v 62.774376 0.079581 -18.060574
v 50.968140 0.079581 -18.060574
v 39.355316 0.079582 -31.268499
v 39.355316 11.885818 -31.268499
v 39.355316 11.885818 -44.976479
v 39.355316 0.079582 -44.976479
v 50.968140 26.793713 -31.268499
v 62.774380 26.793713 -31.268499
v 50.968140 26.793713 -44.976479
v 62.774380 26.793713 -44.976479
vn 1.0000 -0.0000 -0.0000
vn -0.0000 -0.0000 -1.0000
vn -0.0000 -1.0000 -0.0000
vn -1.0000 -0.0000 -0.0000
vn -0.0000 1.0000 -0.0000
vn -0.0000 -0.0000 1.0000
vt 0.167876 0.000000
vt 0.000000 0.161753
vt 0.167876 0.161753
vt 0.832652 0.128578
vt 0.997777 0.296454
vt 0.997777 0.128578
vt 0.547731 0.000000
vt 0.379855 0.166744
vt 0.547731 0.166744
vt 0.000000 0.329628
vt 0.167876 0.329628
vt 0.227936 0.479997
vt 0.015957 0.312122
vt 0.015957 0.479997
vt 0.547731 0.334620
vt 0.191398 0.429073
vt 0.023522 0.261197
vt 0.023522 0.429073
vt 0.833329 0.841668
vt 1.000073 1.009544
vt 1.000073 0.841668
vt 0.000000 0.496372
vt 0.503859 0.296845
vt 0.753425 0.488694
vt 0.753425 0.296845
vt 0.225047 0.181042
vt 0.057171 0.013166
vt 0.057171 0.181042
vt 0.379855 0.496372
vt 0.379855 0.334620
vt 1.002247 0.487291
vt 0.760153 0.295442
vt 0.760153 0.487291
vt 0.853197 0.807321
vt 0.998673 1.000000
vt 0.998673 0.807321
vt 0.001330 0.998485
vt 0.245941 0.714344
vt 0.001330 0.714344
vt 0.031219 0.527150
vt 0.196344 0.695026
vt 0.196344 0.527150
vt 0.712857 0.334620
vt 0.927787 0.294829
vt 0.762661 0.126953
vt 0.762661 0.294829
vt 0.808129 0.289341
vt 0.640254 0.457217
vt 0.808129 0.457217
vt 0.377273 0.293535
vt 0.503083 0.124229
vt 0.377273 0.124229
vt 0.251463 0.293535
vt 0.251463 0.124229
vt 0.503083 0.293535
vt 0.628893 0.124229
vt 0.000000 0.000000
vt 0.832652 0.296454
vt 0.379855 0.000000
vt 0.227936 0.312122
vt 0.191398 0.261197
vt 0.833329 1.009544
vt 0.167876 0.496372
vt 0.503859 0.488694
vt 0.225047 0.013166
vt 0.547731 0.496372
vt 1.002247 0.295442
vt 0.853197 1.000000
vt 0.245941 0.998485
vt 0.031219 0.695026
vt 0.712857 0.166744
vt 0.927787 0.126953
vt 0.640254 0.289341
vt 0.628893 0.293535
s 0
usemtl Material.012
f 14/1/1 2/2/1 1/3/1
f 20/4/2 7/5/2 8/6/2
f 9/7/3 6/8/3 8/9/3
f 1/3/1 6/10/1 5/11/1
f 24/12/1 1/13/1 5/14/1
f 6/8/3 4/15/3 8/9/3
f 11/16/2 9/17/2 10/18/2
f 10/19/4 8/20/4 7/21/4
f 12/22/1 5/11/1 6/10/1
f 11/23/5 7/24/5 5/25/5
f 13/26/6 15/27/6 14/28/6
f 15/29/3 4/15/3 2/30/3
f 13/31/5 1/32/5 3/33/5
f 16/34/4 3/35/4 4/36/4
f 19/37/4 17/38/4 18/39/4
f 19/40/5 3/41/5 7/42/5
f 17/43/3 8/9/3 4/15/3
f 18/44/6 4/45/6 3/46/6
f 22/47/5 23/48/5 21/49/5
f 21/50/4 7/51/4 3/52/4
f 22/53/6 3/52/6 1/54/6
f 23/55/2 5/56/2 7/51/2
f 14/1/1 15/57/1 2/2/1
f 20/4/2 19/58/2 7/5/2
f 9/7/3 12/59/3 6/8/3
f 1/3/1 2/2/1 6/10/1
f 24/12/1 22/60/1 1/13/1
f 6/8/3 2/30/3 4/15/3
f 11/16/2 12/61/2 9/17/2
f 10/19/4 9/62/4 8/20/4
f 12/22/1 11/63/1 5/11/1
f 11/23/5 10/64/5 7/24/5
f 13/26/6 16/65/6 15/27/6
f 15/29/3 16/66/3 4/15/3
f 13/31/5 14/67/5 1/32/5
f 16/34/4 13/68/4 3/35/4
f 19/37/4 20/69/4 17/38/4
f 19/40/5 18/70/5 3/41/5
f 17/43/3 20/71/3 8/9/3
f 18/44/6 17/72/6 4/45/6
f 22/47/5 24/73/5 23/48/5
f 21/50/4 23/55/4 7/51/4
f 22/53/6 21/50/6 3/52/6
f 23/55/2 24/74/2 5/56/2
