# Blender 4.0.2
# www.blender.org
mtllib Bano.mtl
o Cube
v -1.854459 0.037535 1.854459
v -1.854459 8.699261 1.854459
v -1.854459 0.037535 -1.854459
v -1.854459 8.699261 -1.854459
v 1.854459 0.037535 1.854459
v 1.854459 8.699261 1.854459
v 1.854459 0.037535 -1.854459
v 1.854459 8.699261 -1.854459
vn -1.0000 -0.0000 -0.0000
vn -0.0000 -0.0000 -1.0000
vn 1.0000 -0.0000 -0.0000
vn -0.0000 -0.0000 1.0000
vn -0.0000 -1.0000 -0.0000
vn -0.0000 1.0000 -0.0000
vt 0.563388 0.075614
vt 0.563388 0.957987
vt 0.309122 0.957987
vt 0.309122 0.075614
vt 0.562023 0.079395
vt 0.562023 0.956097
vt 0.308883 0.956097
vt 0.308883 0.079395
vt 0.561784 0.071834
vt 0.561784 0.956097
vt 0.307518 0.956097
vt 0.307518 0.071834
vt 0.282266 0.068053
vt 0.282267 0.961768
vt 0.016739 0.961768
vt 0.016739 0.068053
vt 0.290551 0.581806
vt 0.290551 1.000000
vt 0.202140 1.000000
vt 0.202140 0.581806
vt 0.954573 0.236719
vt 0.954573 0.783945
vt 0.655224 0.783945
vt 0.655224 0.236719
s 0
usemtl Material.001
f 1/1/1 2/2/1 4/3/1 3/4/1
f 3/5/2 4/6/2 8/7/2 7/8/2
f 7/9/3 8/10/3 6/11/3 5/12/3
f 5/13/4 6/14/4 2/15/4 1/16/4
f 3/17/5 7/18/5 5/19/5 1/20/5
f 8/21/6 4/22/6 2/23/6 6/24/6
