# Blender 4.0.1
# www.blender.org
mtllib ParedCompletaRota.mtl
o Plane.001
v 56.345966 5.533554 6.783464
v 56.345966 0.086875 5.752874
v -1.438816 14.301556 5.752875
v -1.438816 0.086870 5.752877
v 56.345966 5.533554 5.752873
v 1.607283 14.301556 5.752875
v 47.881611 14.301558 5.752875
v 1.653399 13.534141 5.752875
v 2.529547 13.534141 5.752875
v 2.598719 12.496603 5.752876
v 7.233065 12.404375 5.752876
v 7.071669 13.580255 5.752875
v 10.322630 13.580255 5.752875
v 10.391796 12.335204 5.752876
v 10.783760 12.358263 5.752876
v 10.668474 11.320721 5.752876
v 12.835783 11.251553 5.752876
v 12.835783 10.260126 5.752876
v 20.467466 10.052620 5.752876
v 20.490528 11.205441 5.752876
v 22.104481 11.389893 5.752876
v 21.896973 12.289095 5.752876
v 24.133453 12.335204 5.752876
v 23.764549 13.488031 5.752875
v 28.560284 13.511084 5.752875
v 28.491131 12.496606 5.752876
v 29.390331 12.312155 5.752876
v 29.436443 11.366840 5.752876
v 28.744749 11.274614 5.752876
v 28.860029 10.006509 5.752876
v 29.413385 10.121792 5.752876
v 29.436443 8.992025 5.752876
v 26.208540 8.968968 5.752876
v 26.185482 7.885314 5.752876
v 36.353378 7.977540 5.752876
v 36.099758 9.038137 5.752876
v 36.422546 9.061194 5.752876
v 36.168930 9.983452 5.752876
v 38.820419 10.121792 5.752876
v 38.728195 11.136274 5.752876
v 40.918560 11.136274 5.752876
v 40.711052 12.565775 5.752876
v 46.867126 12.335212 5.752876
v 46.751842 13.580260 5.752875
v 47.950779 13.488031 5.752875
v 51.824272 8.876740 5.752876
v 52.216232 8.853683 5.752876
v 52.285400 7.746972 5.752876
v 53.000145 7.793086 5.752876
v 53.184605 6.732489 5.752876
v 50.694504 6.571095 5.752876
v 50.809788 5.718006 5.752876
v 56.345966 0.086875 6.783464
v -1.438816 0.086870 6.783464
v -1.438816 14.301556 6.783463
v 1.607283 14.301556 6.783463
v 1.653399 13.534141 6.783463
v 2.529547 13.534141 6.783463
v 2.598719 12.496603 6.783463
v 7.233065 12.404375 6.783463
v 7.071669 13.580255 6.783463
v 10.322630 13.580255 6.783463
v 10.391796 12.335204 6.783463
v 10.783760 12.358263 6.783463
v 10.668474 11.320721 6.783463
v 12.835783 11.251553 6.783463
v 12.835783 10.260126 6.783463
v 20.467466 10.052620 6.783463
v 20.490528 11.205441 6.783463
v 22.104481 11.389893 6.783463
v 21.896973 12.289095 6.783463
v 24.133453 12.335204 6.783463
v 23.764549 13.488031 6.783463
v 28.560284 13.511084 6.783463
v 28.491131 12.496606 6.783463
v 29.390331 12.312155 6.783463
v 29.436443 11.366840 6.783463
v 28.744749 11.274614 6.783463
v 28.860029 10.006509 6.783463
v 29.413385 10.121792 6.783463
v 29.436443 8.992025 6.783463
v 26.208540 8.968968 6.783463
v 26.185482 7.885314 6.783464
v 36.353378 7.977540 6.783464
v 36.099758 9.038137 6.783463
v 36.422546 9.061194 6.783463
v 36.168930 9.983452 6.783463
v 38.820419 10.121792 6.783463
v 38.728195 11.136274 6.783463
v 40.918560 11.136274 6.783463
v 40.711052 12.565775 6.783463
v 46.867126 12.335212 6.783463
v 46.751842 13.580260 6.783463
v 47.950779 13.488031 6.783463
v 47.881611 14.301558 6.783463
v 51.824272 8.876740 6.783463
v 52.216232 8.853683 6.783463
v 52.285400 7.746972 6.783464
v 53.000145 7.793086 6.783464
v 53.184605 6.732489 6.783464
v 50.694504 6.571095 6.783464
v 50.809788 5.718006 6.783464
vn -0.0048 1.0000 -0.0000
vn 0.0647 -0.9979 -0.0000
vn -0.0000 -0.0000 -1.0000
vn -0.0000 -0.0000 1.0000
vn 0.9977 -0.0680 -0.0000
vn 0.9910 0.1339 -0.0000
vn 0.2009 0.9796 -0.0000
vn 0.0333 0.9994 -0.0000
vn 0.9988 0.0487 -0.0000
vn 1.0000 -0.0000 -0.0000
vn 0.1322 -0.9912 -0.0000
vn -0.0000 -1.0000 -0.0000
vn 0.9959 0.0905 -0.0000
vn -1.0000 -0.0000 -0.0000
vn -0.2040 0.9790 -0.0000
vn 0.9998 0.0204 -0.0000
vn -0.0000 1.0000 -0.0000
vn 0.0071 -1.0000 -0.0000
vn 0.9998 -0.0213 -0.0000
vn 0.9982 0.0600 -0.0000
vn -0.0091 1.0000 -0.0000
vn -0.9726 -0.2326 -0.0000
vn 0.9978 0.0665 -0.0000
vn -0.0712 0.9975 -0.0000
vn 0.0199 0.9998 -0.0000
vn -0.9642 -0.2652 -0.0000
vn -0.9907 -0.1360 -0.0000
vn -0.0521 0.9986 -0.0000
vn -0.9959 -0.0905 -0.0000
vn 0.9985 0.0555 -0.0000
vn -0.0587 0.9983 -0.0000
vn -0.9896 -0.1437 -0.0000
vn 0.9939 -0.1104 -0.0000
vn 0.0374 0.9993 -0.0000
vn 0.0319 0.9995 -0.0000
vn -0.9957 -0.0922 -0.0000
vn 0.0767 0.9971 -0.0000
vn 0.0272 0.9996 -0.0000
vn -0.9964 -0.0847 -0.0000
vn -0.9998 0.0200 -0.0000
vn 0.8089 0.5879 -0.0000
vn -0.1135 0.9935 -0.0000
vn 0.0587 0.9983 -0.0000
vn -0.9744 -0.2249 -0.0000
vn 0.9981 0.0624 -0.0000
vn -0.0206 0.9998 -0.0000
vn -0.0644 0.9979 -0.0000
vn -0.9524 -0.3048 -0.0000
vn 0.9852 0.1713 -0.0000
vt 0.855832 0.947528
vt 0.437362 0.949150
vt -1.711325 0.472277
vt -1.494042 0.460923
vt 1.143531 0.705848
vt 0.823642 0.866427
vt 0.443396 0.877782
vt 1.809462 0.720446
vt 1.998579 0.795059
vt 3.055046 0.004760
vt -1.504102 0.400909
vt 0.364933 0.864806
vt -1.987181 0.387932
vt 0.360910 0.798303
vt -1.987182 0.004760
vt 0.421266 0.791815
vt 0.411207 0.702604
vt 3.055046 1.004760
vt 0.362922 0.710714
vt 0.360910 0.631235
vt 2.789247 1.004760
vt 0.642572 0.629613
vt 0.644584 0.553379
vt 2.785223 0.950772
vt -0.242653 0.559866
vt 2.708771 0.950772
vt -0.220523 0.634479
vt 2.702736 0.877782
vt -0.248689 0.636101
vt 2.298348 0.871293
vt -0.226559 0.700982
vt 2.312432 0.954016
vt -0.457925 0.710714
vt 2.028757 0.954016
vt -0.449877 0.782083
vt 2.022721 0.866427
vt -0.641005 0.782083
vt 1.988519 0.868050
vt -0.622898 0.882648
vt -1.160070 0.866428
vt 1.809462 0.790193
vt -1.150010 0.954016
vt -1.254628 0.947528
vt -1.248592 1.004760
vt 1.141519 0.786949
vt -1.592624 0.623125
vt 1.000688 0.799925
vt -1.626826 0.621503
vt 1.018794 0.863183
vt -1.632861 0.543646
vt -1.695230 0.546890
s 0
usemtl Material.014
f 73/1/1 25/2/1 24/1/1
f 100/3/2 51/4/2 50/3/2
f 19/5/3 23/6/3 26/7/3
f 67/8/4 65/9/4 54/10/4
f 74/2/5 26/7/5 25/2/5
f 101/4/6 52/11/6 51/4/6
f 75/7/7 27/12/7 26/7/7
f 102/11/8 5/13/8 52/11/8
f 76/12/9 28/14/9 27/12/9
f 1/13/10 2/15/10 5/13/10
f 77/14/11 29/16/11 28/14/11
f 2/15/12 54/10/12 4/10/12
f 78/16/13 30/17/13 29/16/13
f 54/10/14 3/18/14 4/10/14
f 79/17/15 31/19/15 30/17/15
f 80/19/16 32/20/16 31/19/16
f 55/18/17 6/21/17 3/18/17
f 81/20/18 33/22/18 32/20/18
f 82/22/19 34/23/19 33/22/19
f 56/21/20 8/24/20 6/21/20
f 83/23/21 35/25/21 34/23/21
f 57/24/17 9/26/17 8/24/17
f 84/25/22 36/27/22 35/25/22
f 58/26/23 10/28/23 9/26/23
f 85/27/24 37/29/24 36/27/24
f 59/28/25 11/30/25 10/28/25
f 86/29/26 38/31/26 37/29/26
f 60/30/27 12/32/27 11/30/27
f 87/31/28 39/33/28 38/31/28
f 61/32/17 13/34/17 12/32/17
f 88/33/29 40/35/29 39/33/29
f 62/34/30 14/36/30 13/34/30
f 89/35/17 41/37/17 40/35/17
f 63/36/31 15/38/31 14/36/31
f 90/37/32 42/39/32 41/37/32
f 64/38/33 16/9/33 15/38/33
f 91/39/34 43/40/34 42/39/34
f 65/9/35 17/41/35 16/9/35
f 92/40/36 44/42/36 43/40/36
f 66/41/10 18/8/10 17/41/10
f 93/42/37 45/43/37 44/42/37
f 67/8/38 19/5/38 18/8/38
f 94/43/39 7/44/39 45/43/39
f 68/5/40 20/45/40 19/5/40
f 95/44/41 46/46/41 7/44/41
f 69/45/42 21/47/42 20/45/42
f 96/46/43 47/48/43 46/46/43
f 70/47/44 22/49/44 21/47/44
f 97/48/45 48/50/45 47/48/45
f 71/49/46 23/6/46 22/49/46
f 98/50/47 49/51/47 48/50/47
f 72/6/48 24/1/48 23/6/48
f 99/51/49 50/3/49 49/51/49
f 73/1/1 74/2/1 25/2/1
f 100/3/2 101/4/2 51/4/2
f 45/43/3 7/44/3 46/46/3
f 46/46/3 47/48/3 48/50/3
f 48/50/3 49/51/3 50/3/3
f 48/50/3 50/3/3 51/4/3
f 45/43/3 46/46/3 48/50/3
f 43/40/3 44/42/3 45/43/3
f 41/37/3 42/39/3 43/40/3
f 39/33/3 40/35/3 41/37/3
f 37/29/3 38/31/3 39/33/3
f 35/25/3 36/27/3 37/29/3
f 35/25/3 37/29/3 39/33/3
f 39/33/3 41/37/3 43/40/3
f 43/40/3 45/43/3 48/50/3
f 43/40/3 48/50/3 51/4/3
f 35/25/3 39/33/3 43/40/3
f 35/25/3 43/40/3 51/4/3
f 52/11/3 5/13/3 2/15/3
f 35/25/3 51/4/3 52/11/3
f 34/23/3 35/25/3 52/11/3
f 52/11/3 2/15/3 4/10/3
f 4/10/3 3/18/3 6/21/3
f 8/24/3 9/26/3 10/28/3
f 4/10/3 6/21/3 8/24/3
f 34/23/3 52/11/3 4/10/3
f 31/19/3 32/20/3 33/22/3
f 33/22/3 34/23/3 4/10/3
f 4/10/3 8/24/3 10/28/3
f 11/30/3 12/32/3 13/34/3
f 4/10/3 10/28/3 11/30/3
f 31/19/3 33/22/3 4/10/3
f 30/17/3 31/19/3 4/10/3
f 4/10/3 11/30/3 13/34/3
f 14/36/3 15/38/3 16/9/3
f 4/10/3 13/34/3 14/36/3
f 29/16/3 30/17/3 4/10/3
f 27/12/3 28/14/3 29/16/3
f 24/1/3 25/2/3 26/7/3
f 26/7/3 27/12/3 29/16/3
f 4/10/3 14/36/3 16/9/3
f 16/9/3 17/41/3 18/8/3
f 19/5/3 20/45/3 21/47/3
f 4/10/3 16/9/3 18/8/3
f 4/10/3 18/8/3 19/5/3
f 26/7/3 29/16/3 4/10/3
f 23/6/3 24/1/3 26/7/3
f 21/47/3 22/49/3 23/6/3
f 26/7/3 4/10/3 19/5/3
f 19/5/3 21/47/3 23/6/3
f 96/46/4 95/44/4 94/43/4
f 94/43/4 93/42/4 92/40/4
f 92/40/4 91/39/4 90/37/4
f 90/37/4 89/35/4 88/33/4
f 88/33/4 87/31/4 86/29/4
f 86/29/4 85/27/4 84/25/4
f 88/33/4 86/29/4 84/25/4
f 92/40/4 90/37/4 88/33/4
f 96/46/4 94/43/4 92/40/4
f 98/50/4 97/48/4 96/46/4
f 100/3/4 99/51/4 98/50/4
f 101/4/4 100/3/4 98/50/4
f 98/50/4 96/46/4 92/40/4
f 92/40/4 88/33/4 84/25/4
f 98/50/4 92/40/4 84/25/4
f 101/4/4 98/50/4 84/25/4
f 101/4/4 84/25/4 83/23/4
f 53/15/4 1/13/4 102/11/4
f 102/11/4 101/4/4 83/23/4
f 82/22/4 81/20/4 80/19/4
f 53/15/4 102/11/4 83/23/4
f 82/22/4 80/19/4 79/17/4
f 54/10/4 53/15/4 83/23/4
f 82/22/4 79/17/4 78/16/4
f 54/10/4 83/23/4 82/22/4
f 56/21/4 55/18/4 54/10/4
f 59/28/4 58/26/4 57/24/4
f 57/24/4 56/21/4 54/10/4
f 54/10/4 82/22/4 78/16/4
f 78/16/4 77/14/4 76/12/4
f 75/7/4 74/2/4 73/1/4
f 78/16/4 76/12/4 75/7/4
f 59/28/4 57/24/4 54/10/4
f 62/34/4 61/32/4 60/30/4
f 60/30/4 59/28/4 54/10/4
f 54/10/4 78/16/4 75/7/4
f 75/7/4 73/1/4 72/6/4
f 72/6/4 71/49/4 70/47/4
f 70/47/4 69/45/4 68/5/4
f 67/8/4 66/41/4 65/9/4
f 72/6/4 70/47/4 68/5/4
f 75/7/4 72/6/4 68/5/4
f 62/34/4 60/30/4 54/10/4
f 65/9/4 64/38/4 63/36/4
f 63/36/4 62/34/4 54/10/4
f 54/10/4 75/7/4 68/5/4
f 54/10/4 68/5/4 67/8/4
f 65/9/4 63/36/4 54/10/4
f 74/2/5 75/7/5 26/7/5
f 101/4/6 102/11/6 52/11/6
f 75/7/7 76/12/7 27/12/7
f 102/11/8 1/13/8 5/13/8
f 76/12/9 77/14/9 28/14/9
f 1/13/10 53/15/10 2/15/10
f 77/14/11 78/16/11 29/16/11
f 2/15/12 53/15/12 54/10/12
f 78/16/13 79/17/13 30/17/13
f 54/10/14 55/18/14 3/18/14
f 79/17/15 80/19/15 31/19/15
f 80/19/16 81/20/16 32/20/16
f 55/18/17 56/21/17 6/21/17
f 81/20/18 82/22/18 33/22/18
f 82/22/19 83/23/19 34/23/19
f 56/21/20 57/24/20 8/24/20
f 83/23/21 84/25/21 35/25/21
f 57/24/17 58/26/17 9/26/17
f 84/25/22 85/27/22 36/27/22
f 58/26/23 59/28/23 10/28/23
f 85/27/24 86/29/24 37/29/24
f 59/28/25 60/30/25 11/30/25
f 86/29/26 87/31/26 38/31/26
f 60/30/27 61/32/27 12/32/27
f 87/31/28 88/33/28 39/33/28
f 61/32/17 62/34/17 13/34/17
f 88/33/29 89/35/29 40/35/29
f 62/34/30 63/36/30 14/36/30
f 89/35/17 90/37/17 41/37/17
f 63/36/31 64/38/31 15/38/31
f 90/37/32 91/39/32 42/39/32
f 64/38/33 65/9/33 16/9/33
f 91/39/34 92/40/34 43/40/34
f 65/9/35 66/41/35 17/41/35
f 92/40/36 93/42/36 44/42/36
f 66/41/10 67/8/10 18/8/10
f 93/42/37 94/43/37 45/43/37
f 67/8/38 68/5/38 19/5/38
f 94/43/39 95/44/39 7/44/39
f 68/5/40 69/45/40 20/45/40
f 95/44/41 96/46/41 46/46/41
f 69/45/42 70/47/42 21/47/42
f 96/46/43 97/48/43 47/48/43
f 70/47/44 71/49/44 22/49/44
f 97/48/45 98/50/45 48/50/45
f 71/49/46 72/6/46 23/6/46
f 98/50/47 99/51/47 49/51/47
f 72/6/48 73/1/48 24/1/48
f 99/51/49 100/3/49 50/3/49
